<?xml version="1.0" encoding="utf-8"?>
<!-- Generator: Adobe Illustrator 24.0.2, SVG Export Plug-In . SVG Version: 6.00 Build 0)  -->
<svg version="1.1" id="Ebene_1" xmlns="http://www.w3.org/2000/svg" xmlns:xlink="http://www.w3.org/1999/xlink" x="0px" y="0px"
	 viewBox="0 0 311.3 79.5" style="enable-background:new 0 0 311.3 79.5;" xml:space="preserve">
<style type="text/css">
	.st0{fill-rule:evenodd;clip-rule:evenodd;fill:#005A9A;}
	.st1{fill:#00A9AD;}
	.st2{fill-rule:evenodd;clip-rule:evenodd;fill:#00A9AD;}
</style>
<g>
	<g>
		<polygon class="st0" points="17.8,9.2 25.9,9.2 25.9,1 0,1 0,9.2 8.1,9.2 8.1,38.5 17.8,38.5 		"/>
		<polygon class="st0" points="50.9,9.2 50.9,1 29.6,1 29.6,38.5 50.9,38.5 50.9,30.2 39.3,30.2 39.3,23.8 50.3,23.8 50.3,15.5 
			39.3,15.5 39.3,9.2 		"/>
		<rect x="57.2" y="1" class="st0" width="9.7" height="37.5"/>
		<g>
			<path class="st0" d="M100.2,1.9C97.3,0.7,94.4,0,91.3,0C86,0,80.7,2.3,77,6.1c-3.6,3.7-5.5,8.6-5.5,13.7c0,5.6,1.9,10.4,6,14.2
				c3.9,3.5,8.9,5.5,14.1,5.5c3,0,5.4-0.7,8.6-1.7V26.1c-2,2.4-5.2,4-8.4,4c-6.1,0-10.1-4.3-10.1-10.2c0-5.8,4-10.4,10-10.4
				c3.3,0,6.6,1.4,8.6,4.1V1.9z"/>
		</g>
		<g>
			<polygon class="st0" points="116.2,15.5 116.2,1 106.5,1 106.5,38.5 116.2,38.5 116.2,23.1 130.3,23.1 130.3,38.5 140,38.5 
				140,1 130.3,1 130.3,15.5 			"/>
		</g>
		<polygon class="st0" points="146.9,38.5 157.6,38.5 157.3,18.3 166.3,38.5 175.2,18.2 175,38.5 185.7,38.5 185.7,0.9 173.6,0.9 
			166.4,18.7 158.9,0.9 146.9,0.9 		"/>
		<polygon class="st0" points="231.8,38.5 241.6,38.5 241.6,15.5 259.5,38.5 269.3,38.5 269.3,1 259.5,1 259.5,23.9 241.6,1 
			231.8,1 		"/>
		<polygon class="st0" points="273.9,38.5 283.7,38.5 283.7,15.5 301.6,38.5 311.3,38.5 311.3,1 301.6,1 301.6,23.9 283.7,1 
			273.9,1 		"/>
	</g>
	<g>
		<g>
			<path class="st1" d="M175,46.2h4.4v12.9l13.5-12.9h6.1L183.6,61L199.1,78h-5.5l-14.1-15.5V78H175V46.2z"/>
			<path class="st1" d="M204,46.2h6.9c3.4,0,6.2,0.9,8.4,2.6c2.2,1.7,3.2,3.9,3.2,6.6c0,2.1-0.7,4-2.1,5.6c-1.4,1.6-3.6,2.8-6.5,3.4
				l9.3,13.6h-5l-8.8-13.1h-1V78H204V46.2z M208.3,50v11.1c6.4,0.1,9.6-1.7,9.6-5.6c0-1.3-0.4-2.5-1.1-3.3c-0.8-0.9-1.8-1.4-3-1.8
				C212.6,50.2,210.7,50,208.3,50z"/>
			<path class="st1" d="M240.8,45l15,33.1h-4.6l-3.7-8.2h-13.5l-3.7,8.2h-4.5L240.8,45z M240.8,54.9l-5.1,11.4h10.2L240.8,54.9z"/>
			<path class="st1" d="M259.6,44.9l23.6,24.2V46.2h4.3v33.3l-23.6-24.1V78h-4.3V44.9z"/>
			<path class="st1" d="M293.6,46.2h17.7v4.4h-13.4v8h13.4v4.3h-13.4v11h13.4V78h-17.7V46.2z"/>
		</g>
		<polygon class="st2" points="218,38.5 228.4,38.5 214.3,1 203.6,1 189.2,38.5 199.5,38.5 208.8,12.6 		"/>
	</g>
</g>
</svg>
